<svg width="28" height="21" viewBox="0 0 28 21" fill="none" xmlns="http://www.w3.org/2000/svg">
<path d="M0 0H28V21H0V0Z" fill="#000066"/>
<path fill-rule="evenodd" clip-rule="evenodd" d="M12.9098 16.8949L11.0052 17.0627L11.2667 18.9797L9.95489 17.5795L8.64306 18.9797L8.90455 17.0627L7 16.8949L8.64306 15.9099L7.58401 14.2977L9.37089 14.9823L9.95489 13.1405L10.5433 14.9823L12.3301 14.2977L11.2711 15.9099M21.051 18.6617L20.589 17.9638L21.3648 18.2597L21.6176 17.4602L21.8703 18.2597L22.6461 17.9638L22.1885 18.6617L22.9032 19.0901L22.0752 19.1652L22.1885 20L21.6219 19.386L21.0466 20L21.1599 19.1652L20.3319 19.0945M21.0466 6.20141L20.589 5.50353L21.3648 5.79947L21.6176 5L21.8703 5.79947L22.6461 5.50353L22.1885 6.20141L22.9032 6.63428L22.0752 6.70495L22.1885 7.53975L21.6219 6.93021L21.0466 7.53534L21.1599 6.70495L20.3319 6.63428M16.44 11.2633L15.9823 10.5654L16.7581 10.8613L17.0109 10.0618L17.268 10.8613L18.0438 10.5654L17.5818 11.2633L18.2966 11.6917L17.4685 11.7668L17.5862 12.6016L17.0109 11.9876L16.4443 12.6016L16.5533 11.7668L15.7252 11.6961M25.1521 10.0177L24.6858 9.31979L25.4615 9.61572L25.7143 8.81625L25.9715 9.61572L26.7472 9.31979L26.2896 10.0177L27 10.4461L26.1719 10.5212L26.2852 11.3516L25.7187 10.742L25.1434 11.3516L25.2567 10.5212L24.4286 10.4461M23.4655 13.6926L23.0166 13.9797L23.143 13.4541L22.7376 13.1095L23.265 13.0654L23.4655 12.5707L23.6703 13.0698L24.1976 13.1095L23.7923 13.4541L23.9187 13.9797" fill="white"/>
<path d="M0 0H14V11H0V0Z" fill="#000066"/>
<path d="M1.64062 0L6.97813 4.14792L12.2937 0H14V1.42083L8.75 5.52292L14 9.60208V11H12.25L7 6.89792L1.77188 11H0V9.625L5.22813 5.54583L0 1.46667V0H1.64062Z" fill="white"/>
<path fill-rule="evenodd" clip-rule="evenodd" d="M14 0V0.06875L8.55313 4.37708L8.59688 3.36875L12.9062 0H14ZM14 10.0833L9.275 6.43958H8.07187L14 11V10.0833ZM5.38125 7.7L5.25 6.89792L0 11H1.18125L5.38125 7.7ZM5.22813 4.03333L0 0V0.9625L3.91563 4.03333H5.22813Z" fill="#C8102E"/>
<path fill-rule="evenodd" clip-rule="evenodd" d="M5.27187 3.66667V0H8.77188V3.66667H5.27187ZM5.27187 7.33333H0V3.66667H5.27187V7.33333ZM5.27187 7.33333H8.77188V11H5.27187V7.33333ZM8.77188 7.33333V3.66667H14V7.33333H8.77188Z" fill="white"/>
<path fill-rule="evenodd" clip-rule="evenodd" d="M5.97188 4.42292V0H8.07187V4.42292H5.97188ZM5.97188 6.62292H0V4.42292H5.97188V6.62292ZM5.97188 6.62292H8.07187V11H5.97188V6.62292ZM8.07187 6.62292V4.42292H14V6.62292H8.07187Z" fill="#C8102E"/>
</svg>