<svg width="29" height="21" viewBox="0 0 29 21" fill="none" xmlns="http://www.w3.org/2000/svg">
<rect width="28.0014" height="21" fill="white"/>
<path fill-rule="evenodd" clip-rule="evenodd" d="M0 0H28.0014V21H0V0Z" fill="white"/>
<mask id="mask0_0_518" style="mask-type:alpha" maskUnits="userSpaceOnUse" x="0" y="0" width="29" height="21">
<path fill-rule="evenodd" clip-rule="evenodd" d="M0 0H28.0014V21H0V0Z" fill="white"/>
</mask>
<g mask="url(#mask0_0_518)">
<path fill-rule="evenodd" clip-rule="evenodd" d="M0 0H37.4062V1.51501H0V0ZM0 3.03003H37.4062V4.54504H0V3.03003ZM37.4062 6.05621H0V7.57507H37.4062V6.05621ZM0 9.08624H37.4062V10.6013H0V9.08624ZM37.4062 12.1163H0V13.6313H37.4062V12.1163ZM0 15.1425H37.4062V16.6575H0V15.1425ZM37.4062 18.1725H0V19.6875H37.4062V18.1725Z" fill="#BD3D44"/>
<path fill-rule="evenodd" clip-rule="evenodd" d="M37.4062 1.51514H0V3.03015H37.4062V1.51514ZM37.4062 4.54517H0V6.05634H37.4062V4.54517ZM0 7.57135H37.4062V9.08636H0V7.57135ZM37.4062 10.6014H0V12.1164H37.4062V10.6014ZM0 13.6314H37.4062V15.1464H0V13.6314ZM37.4062 16.6576H0V18.1726H37.4062V16.6576Z" fill="white"/>
<path d="M0 0H14.9617V10.6013H0V0Z" fill="#192F5D"/>
<path fill-rule="evenodd" clip-rule="evenodd" d="M1.38428 0.872742L1.24585 0.453613L1.11511 0.872742H0.669067L1.02667 1.13037L0.89209 1.5495L1.24585 1.29187L1.60345 1.55334L1.46887 1.13037L1.82263 0.872742H1.38428ZM3.87598 0.872742L3.74139 0.453613L3.60297 0.872742H3.16461L3.51837 1.13037L3.38379 1.5495L3.74139 1.29187L4.09515 1.55334L3.96057 1.13037L4.31818 0.872742H3.87598ZM6.23309 0.453613L6.37152 0.872742H6.80603L6.45227 1.13037L6.58685 1.55334L6.22925 1.29187L5.87549 1.5495L6.01007 1.13037L5.65247 0.872742H6.09467L6.23309 0.453613ZM8.86322 0.872742L8.72864 0.453613L8.59021 0.872742H8.15186L8.50946 1.13037L8.37103 1.5495L8.72864 1.29187L9.08624 1.55334L8.94781 1.13037L9.30542 0.872742H8.86322ZM11.2203 0.453613L11.3588 0.872742H11.7971L11.4434 1.13037L11.5779 1.55334L11.2203 1.29187L10.8666 1.5495L11.0012 1.13037L10.6474 0.872742H11.0858L11.2203 0.453613ZM13.8505 0.872742L13.7159 0.453613L13.5813 0.872742H13.1391L13.4967 1.13037L13.3583 1.5495L13.7159 1.29187L14.0735 1.55334L13.9351 1.13037L14.2927 0.872742H13.8505ZM2.49554 1.51489L2.63013 1.93402H3.07233L2.71472 2.19165L2.84546 2.61078L2.49939 2.35315L2.14178 2.61078L2.26868 2.19165L1.92261 1.93402H2.36096L2.49554 1.51489ZM5.12567 1.93402L4.98724 1.51489L4.85266 1.93402H4.41046L4.76807 2.19165L4.62964 2.61078L4.98724 2.35315L5.34485 2.61078L5.20642 2.19165L5.56403 1.93402H5.12567ZM7.48279 1.51489L7.61737 1.93402H8.05957L7.70197 2.19165L7.83655 2.61078L7.48279 2.35315L7.12518 2.61078L7.25977 2.19165L6.90601 1.93402H7.34436L7.48279 1.51489ZM10.1129 1.93402L9.97449 1.51489L9.84375 1.93402H9.39771L9.75531 2.19165L9.62073 2.61078L9.97449 2.35315L10.3321 2.61078L10.1937 2.19165L10.5513 1.93402H10.1129ZM12.47 1.51489L12.6046 1.93402H13.0468L12.6892 2.19165L12.8238 2.61078L12.47 2.35315L12.1124 2.61078L12.247 2.19165L11.8932 1.93402H12.3316L12.47 1.51489ZM1.38428 2.99915L1.24585 2.57233L1.11511 2.9953H0.669067L1.02667 3.25293L0.89209 3.6759L1.24585 3.41443L1.60345 3.6759L1.46887 3.25677L1.82263 2.99915H1.38428ZM3.74139 2.57233L3.87598 2.9953H4.31818L3.96057 3.25293L4.09515 3.67206L3.74139 3.41058L3.38379 3.67206L3.51837 3.24908L3.16461 2.99146H3.60297L3.74139 2.57233ZM6.37152 2.9953L6.23309 2.57233L6.09467 2.99146H5.65247L6.01007 3.24908L5.87549 3.67206L6.22925 3.41058L6.58685 3.67206L6.45227 3.25293L6.80603 2.9953H6.37152ZM8.72864 2.57233L8.86322 2.9953H9.30542L8.94781 3.25293L9.08624 3.67206L8.72864 3.41058L8.37103 3.67206L8.50946 3.24908L8.15186 2.99146H8.59021L8.72864 2.57233ZM11.3588 2.9953L11.2203 2.57233L11.0858 2.99146H10.6474L11.0012 3.24908L10.8666 3.67206L11.2203 3.41058L11.5779 3.67206L11.4434 3.25293L11.7971 2.9953H11.3588ZM13.7159 2.57233L13.8505 2.9953H14.2927L13.9351 3.25293L14.0735 3.67206L13.7159 3.41058L13.3583 3.67206L13.4967 3.24908L13.1391 2.99146H13.5813L13.7159 2.57233ZM2.63013 4.05273L2.49554 3.63361L2.35712 4.05273H1.91876L2.27252 4.31036L2.13794 4.72949L2.49554 4.47186L2.8493 4.73334L2.71472 4.31036L3.07233 4.05273H2.63013ZM4.98724 3.63361L5.12567 4.05273H5.56403L5.20642 4.31036L5.34485 4.73334L4.98724 4.47186L4.62964 4.72949L4.76807 4.31036L4.41046 4.05273H4.85266L4.98724 3.63361ZM7.61737 4.05273L7.48279 3.63361L7.34436 4.05273H6.90601L7.25977 4.31036L7.12518 4.72949L7.48279 4.47186L7.83655 4.73334L7.70197 4.31036L8.05957 4.05273H7.61737ZM9.97449 3.63361L10.1129 4.05273H10.5513L10.1975 4.31036L10.3321 4.73334L9.97449 4.47186L9.62073 4.72949L9.75531 4.31036L9.39771 4.05273H9.84375L9.97449 3.63361ZM12.6046 4.05273L12.47 3.63361L12.3316 4.05273H11.8932L12.247 4.31036L12.1124 4.72949L12.47 4.47186L12.8238 4.73334L12.6892 4.31036L13.0468 4.05273H12.6046ZM1.24585 4.69489L1.38428 5.11401H1.82263L1.46887 5.37164L1.60345 5.79462L1.24585 5.53314L0.89209 5.79077L1.02667 5.37164L0.669067 5.11401H1.11511L1.24585 4.69489ZM3.87598 5.11401L3.74139 4.69489L3.60297 5.11401H3.16461L3.51837 5.37164L3.38379 5.79077L3.74139 5.53314L4.09515 5.79077L3.96057 5.37164L4.31818 5.11401H3.87598ZM6.23309 4.69489L6.37152 5.11401H6.80603L6.45227 5.37164L6.58685 5.79462L6.22925 5.53314L5.87549 5.79077L6.01007 5.37164L5.65247 5.11401H6.09467L6.23309 4.69489ZM8.86322 5.11401L8.72864 4.69489L8.59021 5.11401H8.15186L8.50946 5.37164L8.37103 5.79077L8.72864 5.53314L9.08624 5.79462L8.94781 5.37164L9.30542 5.11401H8.86322ZM11.2203 4.69489L11.3588 5.11401H11.7971L11.4434 5.37164L11.5779 5.79462L11.2203 5.53314L10.8666 5.79077L11.0012 5.37164L10.6474 5.11401H11.0858L11.2203 4.69489ZM13.8505 5.11401L13.7159 4.69489L13.5813 5.11401H13.1391L13.4967 5.37164L13.3583 5.79077L13.7159 5.53314L14.0735 5.79462L13.9351 5.37164L14.2927 5.11401H13.8505ZM2.49554 5.75616L2.63013 6.17529H3.07233L2.71472 6.43292L2.8493 6.85205L2.49554 6.59058L2.13794 6.85205L2.27252 6.42908L1.91876 6.17145H2.35712L2.49554 5.75616ZM5.12567 6.17529L4.98724 5.75616L4.85266 6.17145H4.41046L4.76807 6.42908L4.62964 6.85205L4.98724 6.59058L5.34485 6.85205L5.20642 6.43292L5.56403 6.17529H5.12567ZM7.48279 5.75616L7.61737 6.17529H8.05957L7.70197 6.43292L7.83655 6.85205L7.48279 6.59058L7.12518 6.85205L7.25977 6.42908L6.90601 6.17145H7.34436L7.48279 5.75616ZM10.1129 6.17529L9.97449 5.75616L9.84375 6.17145H9.39771L9.75531 6.42908L9.62073 6.85205L9.97449 6.59058L10.3321 6.85205L10.1975 6.43292L10.5513 6.17529H10.1129ZM12.47 5.75616L12.6046 6.17529H13.0468L12.6892 6.43292L12.8238 6.85205L12.47 6.59058L12.1124 6.85205L12.247 6.42908L11.8932 6.17145H12.3316L12.47 5.75616ZM1.38428 7.23657L1.24585 6.8136L1.11511 7.23273H0.669067L1.02667 7.49036L0.89209 7.90948L1.24585 7.65186L1.60345 7.90948L1.46887 7.4942L1.82263 7.23657H1.38428ZM3.74139 6.8136L3.87598 7.23657H4.31818L3.96057 7.4942L4.099 7.90948L3.74139 7.65186L3.38379 7.90948L3.52222 7.49036L3.16461 7.23273H3.60297L3.74139 6.8136ZM6.37152 7.23657L6.23309 6.8136L6.09467 7.23273H5.65247L6.01007 7.49036L5.87549 7.90948L6.22925 7.65186L6.58685 7.90948L6.45227 7.4942L6.80603 7.23657H6.37152ZM8.72864 6.8136L8.86322 7.23657H9.30542L8.94781 7.4942L9.08624 7.90948L8.72864 7.65186L8.37103 7.90948L8.50946 7.49036L8.15186 7.23273H8.59021L8.72864 6.8136ZM11.3588 7.23657L11.2203 6.8136L11.0858 7.23273H10.6474L11.0012 7.49036L10.8666 7.90948L11.2203 7.65186L11.5779 7.90948L11.4434 7.4942L11.7971 7.23657H11.3588ZM13.7159 6.8136L13.8505 7.23657H14.2927L13.9351 7.4942L14.0735 7.90948L13.7159 7.65186L13.3583 7.90948L13.4967 7.49036L13.1391 7.23273H13.5813L13.7159 6.8136ZM2.63013 8.29401L2.49554 7.87488L2.35712 8.29401H1.91876L2.27252 8.55164L2.13794 8.97076L2.49554 8.71313L2.8493 8.97461L2.71472 8.55164L3.07233 8.29401H2.63013ZM4.98724 7.87488L5.12567 8.29401H5.56403L5.20642 8.55164L5.34485 8.97461L4.98724 8.71313L4.62964 8.97076L4.76807 8.55164L4.41046 8.29401H4.85266L4.98724 7.87488ZM7.61737 8.29401L7.48279 7.87488L7.34436 8.29401H6.90601L7.25977 8.55164L7.12518 8.97076L7.48279 8.71313L7.83655 8.97461L7.70197 8.55164L8.05957 8.29401H7.61737ZM9.97449 7.87488L10.1129 8.29401H10.5513L10.1975 8.55164L10.3321 8.97461L9.97449 8.71313L9.62073 8.97076L9.75531 8.55164L9.39771 8.29401H9.84375L9.97449 7.87488ZM12.6046 8.29401L12.47 7.87488L12.3316 8.29401H11.8932L12.247 8.55164L12.1124 8.97076L12.47 8.71313L12.8238 8.97461L12.6892 8.55164L13.0468 8.29401H12.6046ZM1.24585 8.93616L1.38428 9.35529H1.82263L1.46887 9.61292L1.60345 10.032L1.24585 9.77441L0.89209 10.032L1.02667 9.60907L0.669067 9.35144H1.11511L1.24585 8.93616ZM3.87598 9.35529L3.74139 8.93616L3.60297 9.35144H3.16461L3.52222 9.60907L3.38379 10.032L3.74139 9.77441L4.099 10.032L3.96057 9.61292L4.31818 9.35529H3.87598ZM6.23309 8.93616L6.37152 9.35529H6.80603L6.45996 9.61292L6.59454 10.032L6.23694 9.77441L5.88318 10.032L6.01776 9.60907L5.66016 9.35144H6.10236L6.23309 8.93616ZM8.86322 9.35529L8.72864 8.93616L8.59021 9.35144H8.15186L8.50946 9.60907L8.37103 10.032L8.72864 9.77441L9.08624 10.032L8.94781 9.61292L9.30542 9.35529H8.86322ZM11.2203 8.93616L11.3588 9.35529H11.7971L11.4434 9.61292L11.5779 10.032L11.2203 9.77441L10.8666 10.032L11.0012 9.60907L10.6474 9.35144H11.0858L11.2203 8.93616ZM13.8505 9.35529L13.7159 8.93616L13.5813 9.35144H13.1391L13.4967 9.60907L13.3583 10.032L13.7159 9.77441L14.0735 10.032L13.9351 9.61292L14.2927 9.35529H13.8505Z" fill="white"/>
</g>
</svg>